<svg t="1754403630930" class="icon" viewBox="0 0 1024 1024" version="1.1" xmlns="http://www.w3.org/2000/svg" p-id="1911" width="512" height="512"><path d="M923.136 969.557333H193.024v-909.653333h521.386667l208.725333 207.701333z" fill="#7CCDFF" p-id="1912"></path><path d="M912.896 253.952l2.56 671.914667c0 15.530667-12.458667 27.989333-27.989333 27.989333H237.909333c-15.530667 0-27.989333-12.458667-27.989333-27.989333V96.938667c0-15.530667 12.458667-27.989333 27.989333-27.989334l493.397334-1.024-38.912-39.936H239.274667c-36.352 0-65.706667 29.354667-65.706667 65.706667v835.584c0 36.352 29.354667 65.706667 65.706667 65.706667h646.826666c36.352 0 65.706667-29.354667 65.706667-65.706667V293.888l-38.912-39.936z" fill="#4191FB" p-id="1913"></path><path d="M692.394667 222.72c0 39.424 31.914667 71.338667 71.338666 71.338667h188.245334L692.394667 27.989333v194.730667z" fill="#C7E2FF" p-id="1914"></path><path d="M557.568 482.304H158.72c-50.346667 0-91.136-40.789333-91.136-91.136v-60.245333c0-50.346667 40.789333-91.136 91.136-91.136h398.848c50.346667 0 91.136 40.789333 91.136 91.136v60.245333c0 50.346667-40.789333 91.136-91.136 91.136z" fill="#4191FB" p-id="1915"></path><path d="M222.378667 379.562667l36.693333 12.8c-2.389333 11.776-6.314667 21.674667-11.605333 29.696-5.290667 7.850667-11.946667 13.994667-19.797334 17.92-7.850667 3.925333-17.92 5.973333-30.037333 5.973333-14.677333 0-26.794667-2.389333-36.181333-7.338667s-17.408-13.653333-24.234667-25.941333c-6.826667-12.458667-10.24-28.16-10.24-47.616 0-25.770667 5.973333-45.568 17.92-59.392s28.842667-20.821333 50.688-20.821333c17.066667 0 30.549333 3.925333 40.277333 11.946666 9.728 7.850667 17.066667 20.138667 21.845334 36.522667l-37.034667 9.386667c-1.365333-4.778667-2.730667-8.192-4.096-10.410667-2.389333-3.754667-5.290667-6.485333-8.533333-8.533333-3.413333-2.048-7.168-2.901333-11.434667-2.901334-9.557333 0-16.725333 4.437333-21.845333 13.141334-3.754667 6.485333-5.802667 16.725333-5.802667 30.72 0 17.237333 2.218667 29.013333 6.826667 35.498666s10.922667 9.557333 19.285333 9.557334c8.021333 0 13.994667-2.56 18.090667-7.68 4.437333-5.12 7.338667-12.629333 9.216-22.528zM274.261333 365.568c0-25.429333 6.144-45.226667 18.432-59.392s29.525333-21.162667 51.541334-21.162667c22.528 0 39.936 6.997333 52.224 20.821334s18.261333 33.450667 18.261333 58.538666c0 18.261333-2.730667 33.109333-8.021333 44.714667-5.290667 11.605333-12.970667 20.650667-23.04 27.136-10.069333 6.485333-22.698667 9.728-37.717334 9.728-15.36 0-27.989333-2.730667-37.888-8.362667-10.069333-5.632-18.090667-14.506667-24.405333-26.624-6.314667-12.117333-9.386667-27.306667-9.386667-45.397333z m41.813334 0.170667c0 15.701333 2.56 26.965333 7.68 33.962666 5.12 6.826667 11.946667 10.24 20.821333 10.24 9.045333 0 16.042667-3.413333 20.821333-10.069333 4.949333-6.656 7.338667-18.773333 7.338667-36.181333 0-14.677333-2.56-25.429333-7.68-32.085334-5.12-6.826667-12.117333-10.069333-20.992-10.069333-8.362667 0-15.189333 3.413333-20.309333 10.24-5.12 6.656-7.68 18.090667-7.68 33.962667zM436.736 287.573333h55.125333l21.162667 94.72 21.162667-94.72h55.125333v155.818667h-34.304v-118.784l-26.453333 118.784h-31.061334L471.04 324.608v118.784h-34.304v-155.818667z" fill="#FFFFFF" p-id="1916"></path><path d="M347.818667 835.072l124.586666-124.586667c7.509333-7.509333 19.797333-7.509333 27.306667 0l2.56 2.56c7.509333 7.509333 7.509333 19.797333 0 27.306667l-124.586667 124.586667c-7.509333 7.509333-19.797333 7.509333-27.306666 0l-2.56-2.56c-7.509333-7.509333-7.509333-19.626667 0-27.306667z" fill="#4191FB" p-id="1917"></path><path d="M472.576 742.4l-124.586667-124.586667c-7.509333-7.509333-7.509333-19.797333 0-27.306666l2.56-2.56c7.509333-7.509333 19.797333-7.509333 27.306667 0l124.586667 124.586666c7.509333 7.509333 7.509333 19.797333 0 27.306667l-2.56 2.56c-7.68 7.68-19.797333 7.68-27.306667 0z" fill="#4191FB" p-id="1918"></path><path d="M567.808 769.706667h199.168c13.312 0 24.064 10.752 24.064 24.064v4.437333c0 13.312-10.752 24.064-24.064 24.064H567.808c-13.312 0-24.064-10.752-24.064-24.064v-4.437333c-0.170667-13.312 10.752-24.064 24.064-24.064z" fill="#4191FB" p-id="1919"></path></svg>