<?xml version="1.0" encoding="UTF-8"?>
<svg id="_图层_2" data-name="图层_2" xmlns="http://www.w3.org/2000/svg" viewBox="0 0 512 512">
  <defs>
    <style>
      .cls-1, .cls-2 {
        fill: #ff7712;
      }

      .cls-3 {
        fill: #ffdbc2;
        font-family: AaWeitaningmengcha, AaWeitaningmengcha;
        font-size: 219.83px;
      }

      .cls-2 {
        opacity: .65;
      }

      .cls-4 {
        fill: #ffae71;
        opacity: .3;
      }
    </style>
  </defs>
  <g id="_图层_1-2" data-name="图层_1">
    <path class="cls-4" d="M358.4,0h-204.8C68.77,0,0,68.77,0,153.6v204.8c0,84.83,68.77,153.6,153.6,153.6h204.8c84.83,0,153.6-68.77,153.6-153.6v-204.8C512,68.77,443.23,0,358.4,0Z"/>
    <path class="cls-1" d="M44.26,201.47c-2.96-17.54,8.85-34.15,26.39-37.11,1.76-.3,3.54-.45,5.33-.45h314.32c17.78,0,32.2,14.42,32.2,32.2,0,1.79-.15,3.58-.45,5.34l-31.78,188.69c-2.61,15.5-16.02,26.84-31.73,26.85H107.85c-15.72,0-29.15-11.34-31.77-26.84l-31.83-188.69Z"/>
    <path class="cls-2" d="M95.16,95c-8.89,0-16.1,7.21-16.1,16.1h0v39.51c5.08-3.13,10.93-4.78,16.89-4.77h314.3c17.78,0,32.21,14.4,32.21,32.19,0,1.8-.15,3.59-.45,5.36l-31.78,188.69c-.57,3.39-1.68,6.66-3.28,9.69,14.2-1.62,25.63-12.4,28.08-26.48l32.68-188.69c3.04-17.52-8.7-34.19-26.22-37.23-1.82-.32-3.65-.47-5.5-.47H177.18l-22.38-27.87c-3.06-3.81-7.68-6.02-12.56-6.02h-47.08Z"/>
    <text class="cls-3" transform="translate(126 361.33)"><tspan x="0" y="0">易</tspan></text>
  </g>
</svg>