<?xml version="1.0" encoding="UTF-8"?>
<svg id="uuid-59637cc5-4999-4d9d-98cb-de785517a60d" xmlns="http://www.w3.org/2000/svg" viewBox="0 0 442.2 483.5">
  <path d="M427.78,470.78H62.72V15.96h260.69l104.36,103.85v350.98Z" style="fill: #7ccdff;"/>
  <path d="M422.66,112.98l1.28,335.96c0,7.77-6.23,13.99-13.99,13.99H85.16c-7.77,0-13.99-6.23-13.99-13.99V34.47c0-7.77,6.23-13.99,13.99-13.99l246.7-.51L312.41,0H85.85c-18.18,0-32.85,14.68-32.85,32.85v417.79c0,18.18,14.68,32.85,32.85,32.85h323.41c18.18,0,32.85-14.68,32.85-32.85V132.95l-19.46-19.97Z" style="fill: #4191fb;"/>
  <path d="M312.41,97.37c0,19.71,15.96,35.67,35.67,35.67h94.12L312.41,0v97.37Z" style="fill: #c7e2ff;"/>
  <path d="M244.99,227.16H45.57c-25.17,0-45.57-20.39-45.57-45.57v-30.12c0-25.17,20.39-45.57,45.57-45.57h199.42c25.17,0,45.57,20.39,45.57,45.57v30.12c0,25.17-20.39,45.57-45.57,45.57h0Z" style="fill: #4191fb;"/>
  <text transform="translate(62.72 210.46)" style="fill: #fff; font-family: SourceHanSansCN-Heavy-GBpc-EUC-H, &apos;Source Han Sans CN&apos;; font-size: 120.92px; font-weight: 800; letter-spacing: .05em;"><tspan x="0" y="0">ES</tspan></text>
  <path d="M249.34,369.66c-1.28-3.75-2.47-7.59-2.47-11.61-.09-13.31,12.03-23.89,23.04-32.34,3.33-2.56,6.74-5.12,10.75-6.4,5.55-1.71,11.52-.51,17.24-.94,9.05-.68,17.32-5.12,25.77-8.53,14.42-5.8,29.95-8.7,45.31-8.45,7.94,20.31,1.02,43.43,2.13,65.37.6,11.95,3.58,23.55,4.18,35.41.09,1.71.09,3.41-.51,5.03-1.45,4.01-5.97,6.14-10.07,7.85-19.71,8.11-39.42,16.21-59.05,24.41-2.82,1.11-5.72,2.3-8.7,2.3-11.69-.26-20.48-19.54-25.69-27.48-9.13-13.99-16.55-28.93-21.93-44.63h0Z" style="fill: #4191fb;"/>
  <path d="M375.21,417.62c3.24-1.62,6.57-3.41,8.53-6.4,2.3-3.5,2.05-7.94,1.54-11.95-1.62-12.46-5.38-24.58-5.55-37.21-.26-16.38,5.55-33.11,1.88-48.98,12.29,25.17,10.24,55.04,18.94,81.58,1.54,4.61,3.41,9.3,3.07,14.25-.51,7.25-5.89,13.65-12.29,17.66-6.49,4.01-13.99,5.97-21.33,7.85-18.35,4.69-36.69,9.39-55.04,14.17,15.02-14.85,41.13-21.33,60.25-30.98h0Z" style="fill: #4191fb;"/>
  <path d="M435.88,284.16h-239.7c-2.99,0-5.38-2.39-5.38-5.38v-1.02c0-2.99,2.39-5.38,5.38-5.38h239.7c2.99,0,5.38,2.39,5.38,5.38v1.02c0,2.9-2.39,5.38-5.38,5.38h0Z" style="fill: #4191fb;"/>
  <path d="M231.59,251.56v224c0,2.99-2.39,5.38-5.38,5.38h-1.02c-2.99,0-5.38-2.39-5.38-5.38v-224c0-2.99,2.39-5.38,5.38-5.38h1.02c2.9,0,5.38,2.39,5.38,5.38Z" style="fill: #4191fb;"/>
</svg>