<?xml version="1.0" encoding="UTF-8"?>
<svg id="uuid-61b4e2ac-7af3-4567-9a81-1e15eddfa3ab" data-name="图层 2" xmlns="http://www.w3.org/2000/svg" xmlns:xlink="http://www.w3.org/1999/xlink" viewBox="0 0 22 22">
  <defs>
    <clipPath id="uuid-83a4ed6a-e66a-49ec-be37-9105910b188b">
      <rect width="22" height="22" style="fill: none;"/>
    </clipPath>
    <clipPath id="uuid-afed7916-4029-41b2-9859-9235c4e3c051">
      <rect width="22" height="22" style="fill: none;"/>
    </clipPath>
    <linearGradient id="uuid-f4b98309-e6c0-4884-84b6-2b36e8f4ee5d" data-name="未命名的渐变" x1="9.37" y1="25.57" x2="13.46" y2="6.36" gradientTransform="translate(0 28.67) scale(1 -1)" gradientUnits="userSpaceOnUse">
      <stop offset="0" stop-color="#0669bc"/>
      <stop offset="1" stop-color="#243a5f"/>
    </linearGradient>
    <linearGradient id="uuid-d2ebc98f-9299-4c65-bfa6-169afce6da18" data-name="未命名的渐变 2" x1="9.37" y1="25.57" x2="13.46" y2="6.36" gradientTransform="translate(0 28.67) scale(1 -1)" gradientUnits="userSpaceOnUse">
      <stop offset="0" stop-color="#0078d4"/>
      <stop offset="1" stop-color="#114a8b"/>
    </linearGradient>
    <mask id="uuid-87682041-f37f-4bb1-bb12-65f4ac600f4e" data-name="mask" x=".34" y="0" width="21.31" height="21.31" maskUnits="userSpaceOnUse">
      <g id="uuid-0c505ff4-bb66-483e-a819-e0599b72f559" data-name="mask0 1049 9133">
        <path d="M.34,3.67c0-.51.41-.92.92-.92h19.48c.51,0,.92.41.92.92v13.86c0,2.09-1.69,3.78-3.78,3.78H4.12c-2.09,0-3.78-1.69-3.78-3.78V3.67Z" style="fill: url(#uuid-d2ebc98f-9299-4c65-bfa6-169afce6da18);"/>
      </g>
    </mask>
    <linearGradient id="uuid-3df5e6b4-4eb7-4314-8559-f5557f322c2f" data-name="未命名的渐变 3" x1="10.93" y1="27.97" x2="11.13" y2="25.01" gradientTransform="translate(0 28.67) scale(1 -1)" gradientUnits="userSpaceOnUse">
      <stop offset="0" stop-color="#28afea"/>
      <stop offset="1" stop-color="#0078d4"/>
    </linearGradient>
    <linearGradient id="uuid-6a9da33a-72ab-4b64-a910-f399e054d220" data-name="未命名的渐变 4" x1="10.89" y1="27.97" x2="11.08" y2="25.01" gradientTransform="translate(0 28.67) scale(1 -1)" gradientUnits="userSpaceOnUse">
      <stop offset="0" stop-color="#30daff"/>
      <stop offset="1" stop-color="#0094d4"/>
    </linearGradient>
    <linearGradient id="uuid-91124716-d4d4-40a9-898c-c24f73e91ff2" data-name="未命名的渐变 5" x1="11" y1="28.67" x2="11" y2="27.29" gradientTransform="translate(0 28.67) scale(1 -1)" gradientUnits="userSpaceOnUse">
      <stop offset="0" stop-color="#22bcff"/>
      <stop offset="1" stop-color="#0088f0"/>
    </linearGradient>
    <linearGradient id="uuid-729fb690-83b0-45dd-aaa8-6de45e69ad48" data-name="未命名的渐变 6" x1="11" y1="28.67" x2="11" y2="27.29" gradientTransform="translate(0 28.67) scale(1 -1)" gradientUnits="userSpaceOnUse">
      <stop offset="0" stop-color="#28afea"/>
      <stop offset="1" stop-color="#3ccbf4"/>
    </linearGradient>
    <mask id="uuid-afbad4c1-4ef6-46c7-a503-34586c3c3909" data-name="mask-1" x="4.55" y="0" width="10.92" height="4.13" maskUnits="userSpaceOnUse">
      <g id="uuid-b540a222-f319-4ac2-a461-41e1f1cdad42" data-name="mask1 1049 9133">
        <rect x="6.53" width="8.94" height="1.38" style="fill: url(#uuid-729fb690-83b0-45dd-aaa8-6de45e69ad48);"/>
      </g>
    </mask>
  </defs>
  <g id="uuid-97e00b4a-314d-419d-b7fb-904f8c4dc090" data-name="图层 1"     width="1em"
    height="1em">
    <g style="clip-path: url(#uuid-83a4ed6a-e66a-49ec-be37-9105910b188b);">
      <g style="clip-path: url(#uuid-afed7916-4029-41b2-9859-9235c4e3c051);">
        <g>
          <path d="M.34,3.67c0-.51.41-.92.92-.92h19.48c.51,0,.92.41.92.92v13.86c0,2.09-1.69,3.78-3.78,3.78H4.12c-2.09,0-3.78-1.69-3.78-3.78V3.67Z" style="fill: url(#uuid-f4b98309-e6c0-4884-84b6-2b36e8f4ee5d);"/>
          <g style="mask: url(#uuid-87682041-f37f-4bb1-bb12-65f4ac600f4e);">
            <path d="M5.84,3.44V.69h10.31v2.75" style="fill: none; stroke: url(#uuid-3df5e6b4-4eb7-4314-8559-f5557f322c2f); stroke-linecap: round; stroke-width: 1.38px;"/>
          </g>
          <g>
            <path d="M10.66,7.56h-4.12v4.12h4.12v-4.12Z" style="fill: #f25022;"/>
            <path d="M15.47,7.56h-4.12v4.12h4.12v-4.12Z" style="fill: #7fba00;"/>
            <path d="M15.47,12.38h-4.12v4.13h4.12v-4.13Z" style="fill: #ffb900;"/>
            <path d="M10.66,12.38h-4.12v4.13h4.12v-4.13Z" style="fill: #00a4ef;"/>
          </g>
          <path d="M5.84,3.44V1.38c0-.38.31-.69.69-.69h8.94c.38,0,.69.31.69.69v2.06" style="fill: none; stroke: url(#uuid-6a9da33a-72ab-4b64-a910-f399e054d220); stroke-linecap: round; stroke-width: 1.38px;"/>
          <rect x="6.53" width="8.94" height="1.38" style="fill: url(#uuid-91124716-d4d4-40a9-898c-c24f73e91ff2);"/>
          <g style="mask: url(#uuid-afbad4c1-4ef6-46c7-a503-34586c3c3909);">
            <rect x="4.55" y=".69" width="1.99" height="3.44" style="fill: #c4c4c4;"/>
          </g>
        </g>
      </g>
    </g>
  </g>
</svg>